<svg width="72" height="72" viewBox="0 0 72 72" fill="none" xmlns="http://www.w3.org/2000/svg">
<circle cx="36" cy="36" r="36" fill="#FAFF00"/>
<path d="M5.832 7.008V13.728H8.544C8.704 12.624 9.048 11.632 9.576 10.752C10.104 9.872 10.768 9.12 11.568 8.496C12.368 7.872 13.28 7.392 14.304 7.056C15.344 6.72 16.464 6.552 17.664 6.552C18.992 6.552 20.224 6.76 21.36 7.176C22.496 7.592 23.472 8.184 24.288 8.952C25.12 9.72 25.768 10.656 26.232 11.76C26.696 12.848 26.928 14.072 26.928 15.432C26.928 16.776 26.696 18.008 26.232 19.128C25.768 20.232 25.12 21.184 24.288 21.984C23.472 22.768 22.496 23.376 21.36 23.808C20.224 24.24 18.992 24.456 17.664 24.456C16.48 24.456 15.368 24.288 14.328 23.952C13.304 23.6 12.392 23.104 11.592 22.464C10.792 21.824 10.128 21.056 9.6 20.16C9.072 19.264 8.72 18.272 8.544 17.184H5.832V24H1.752V7.008H5.832ZM12.816 15.432C12.816 16.2 12.936 16.912 13.176 17.568C13.416 18.208 13.744 18.76 14.16 19.224C14.592 19.688 15.104 20.056 15.696 20.328C16.288 20.584 16.944 20.712 17.664 20.712C18.384 20.712 19.04 20.584 19.632 20.328C20.224 20.056 20.736 19.688 21.168 19.224C21.6 18.76 21.936 18.208 22.176 17.568C22.416 16.912 22.536 16.2 22.536 15.432C22.536 14.696 22.416 14.008 22.176 13.368C21.936 12.728 21.6 12.184 21.168 11.736C20.752 11.272 20.24 10.912 19.632 10.656C19.04 10.384 18.384 10.248 17.664 10.248C16.944 10.248 16.288 10.384 15.696 10.656C15.104 10.912 14.592 11.272 14.16 11.736C13.728 12.184 13.392 12.728 13.152 13.368C12.928 14.008 12.816 14.696 12.816 15.432Z" transform="translate(22 20)" fill="#E50000"/>
</svg>
